<?xml version="1.0" encoding="UTF-8"?>
<svg id="Laag_2" data-name="Laag 2" xmlns="http://www.w3.org/2000/svg" viewBox="0 0 428.99 86.84">
  <defs>
    <style>
      .cls-1 {
        fill: #0b7c7b;
        stroke-width: 0px;
      }
    </style>
  </defs>
  <g id="Laag_2-2" data-name="Laag 2">
    <g id="Laag_1-2" data-name="Laag 1-2">
      <g>
        <g>
          <path class="cls-1" d="M0,3.51h18.02v32.41h33.23V3.51h18.02v81.9h-18.02v-32.88H18.02v32.88H0V3.51Z"/>
          <path class="cls-1" d="M79.91,54.41v-.23c0-17.9,12.75-32.64,31.01-32.64,20.94,0,30.54,16.26,30.54,34.05,0,1.4-.12,3.04-.23,4.68h-43.64c1.75,8.07,7.37,12.29,15.33,12.29,5.97,0,10.3-1.87,15.21-6.43l10.18,9.01c-5.85,7.25-14.27,11.7-25.62,11.7-18.84,0-32.76-13.22-32.76-32.41l-.02-.02ZM124.14,49.14c-1.05-7.96-5.73-13.34-13.22-13.34s-12.17,5.27-13.57,13.34h26.79Z"/>
        </g>
        <g>
          <path class="cls-1" d="M149.63,54.41v-.23c0-17.9,12.75-32.64,31.01-32.64,20.94,0,30.54,16.26,30.54,34.05,0,1.4-.12,3.04-.23,4.68h-43.64c1.75,8.07,7.37,12.29,15.33,12.29,5.97,0,10.3-1.87,15.21-6.43l10.18,9.01c-5.85,7.25-14.27,11.7-25.62,11.7-18.84,0-32.76-13.22-32.76-32.41l-.02-.02ZM193.86,49.14c-1.05-7.96-5.73-13.34-13.22-13.34s-12.17,5.27-13.57,13.34h26.79,0Z"/>
          <path class="cls-1" d="M222.41,22.7h17.78v12.64c3.63-8.66,9.48-14.27,20.01-13.81v18.6h-.94c-11.82,0-19.07,7.14-19.07,22.11v23.17h-17.78V22.7Z"/>
          <path class="cls-1" d="M270.14,0h17.78v85.41h-17.78V0Z"/>
          <path class="cls-1" d="M299.62,54.41v-.23c0-17.9,12.75-32.64,31.01-32.64,20.94,0,30.54,16.26,30.54,34.05,0,1.4-.12,3.04-.23,4.68h-43.64c1.75,8.07,7.37,12.29,15.33,12.29,5.97,0,10.3-1.87,15.21-6.43l10.18,9.01c-5.85,7.25-14.28,11.7-25.62,11.7-18.84,0-32.76-13.22-32.76-32.41l-.02-.02ZM343.85,49.14c-1.05-7.96-5.73-13.34-13.22-13.34s-12.17,5.27-13.57,13.34h26.79Z"/>
        </g>
        <path class="cls-1" d="M371.54,22.7h17.79v8.89c4.09-5.27,9.36-10.06,18.37-10.06,13.46,0,21.29,8.89,21.29,23.28v40.6h-17.78v-34.98c0-8.42-3.98-12.75-10.76-12.75s-11.12,4.33-11.12,12.75v34.98h-17.79V22.7Z"/>
      </g>
    </g>
  </g>
</svg>